{
    "asset" : {
        "generator" : "Khronos glTF Blender I/O v1.5.17",
        "version" : "2.0"
    },
    "scene" : 0,
    "scenes" : [
        {
            "name" : "Scene",
            "nodes" : [
                0,
                1,
                2,
                4
            ]
        }
    ],
    "nodes" : [
        {
            "mesh" : 0,
            "name" : "Plane",
            "translation" : [
                0.018065456300973892,
                -0.01844591274857521,
                -0.07593203336000443
            ]
        },
        {
            "name" : "Light",
            "rotation" : [
                0.16907575726509094,
                0.7558803558349609,
                -0.27217137813568115,
                0.570947527885437
            ],
            "translation" : [
                -2.100250244140625,
                1.4276765584945679,
                1.5786980390548706
            ]
        },
        {
            "name" : "Camera",
            "rotation" : [
                -0.4047471880912781,
                -0.4216105341911316,
                0.2183564007282257,
                -0.7815015912055969
            ],
            "translation" : [
                0.20449689030647278,
                0.21740517020225525,
                0.26538559794425964
            ]
        },
        {
            "mesh" : 1,
            "name" : "Icing"
        },
        {
            "children" : [
                3
            ],
            "mesh" : 2,
            "name" : "Donut",
            "translation" : [
                -0.0065282052382826805,
                0.007382092997431755,
                0.021804533898830414
            ]
        }
    ],
    "materials" : [
        {
            "doubleSided" : true,
            "name" : "Material.001",
            "pbrMetallicRoughness" : {
                "baseColorFactor" : [
                    0.012664321810007095,
                    0.3928966224193573,
                    1,
                    1
                ],
                "metallicFactor" : 0,
                "roughnessFactor" : 0.625
            }
        },
        {
            "doubleSided" : true,
            "name" : "Material.002",
            "pbrMetallicRoughness" : {
                "baseColorFactor" : [
                    0.7952654957771301,
                    0.4262196123600006,
                    0.8000000715255737,
                    1
                ],
                "metallicFactor" : 0,
                "roughnessFactor" : 0.3235294222831726
            }
        },
        {
            "doubleSided" : true,
            "name" : "Material.003",
            "pbrMetallicRoughness" : {
                "baseColorFactor" : [
                    0.8000000715255737,
                    0.5685832500457764,
                    0.18025805056095123,
                    1
                ],
                "metallicFactor" : 0,
                "roughnessFactor" : 0.5
            }
        }
    ],
    "meshes" : [
        {
            "name" : "Plane",
            "primitives" : [
                {
                    "attributes" : {
                        "POSITION" : 0,
                        "NORMAL" : 1,
                        "TEXCOORD_0" : 2
                    },
                    "indices" : 3,
                    "material" : 0
                }
            ]
        },
        {
            "name" : "Torus.003",
            "primitives" : [
                {
                    "attributes" : {
                        "POSITION" : 4,
                        "NORMAL" : 5,
                        "TEXCOORD_0" : 6
                    },
                    "indices" : 7,
                    "material" : 1
                }
            ]
        },
        {
            "name" : "Torus.002",
            "primitives" : [
                {
                    "attributes" : {
                        "POSITION" : 8,
                        "NORMAL" : 9,
                        "TEXCOORD_0" : 10
                    },
                    "indices" : 11,
                    "material" : 2
                }
            ]
        }
    ],
    "accessors" : [
        {
            "bufferView" : 0,
            "componentType" : 5126,
            "count" : 4,
            "max" : [
                1,
                0,
                1
            ],
            "min" : [
                -1,
                0,
                -1
            ],
            "type" : "VEC3"
        },
        {
            "bufferView" : 1,
            "componentType" : 5126,
            "count" : 4,
            "type" : "VEC3"
        },
        {
            "bufferView" : 2,
            "componentType" : 5126,
            "count" : 4,
            "type" : "VEC2"
        },
        {
            "bufferView" : 3,
            "componentType" : 5123,
            "count" : 6,
            "type" : "SCALAR"
        },
        {
            "bufferView" : 4,
            "componentType" : 5126,
            "count" : 1675,
            "max" : [
                0.07692939788103104,
                0.04308072105050087,
                0.08689933270215988
            ],
            "min" : [
                -0.07494735717773438,
                -0.020254645496606827,
                -0.0703333169221878
            ],
            "type" : "VEC3"
        },
        {
            "bufferView" : 5,
            "componentType" : 5126,
            "count" : 1675,
            "type" : "VEC3"
        },
        {
            "bufferView" : 6,
            "componentType" : 5126,
            "count" : 1675,
            "type" : "VEC2"
        },
        {
            "bufferView" : 7,
            "componentType" : 5123,
            "count" : 9318,
            "type" : "SCALAR"
        },
        {
            "bufferView" : 8,
            "componentType" : 5126,
            "count" : 18721,
            "max" : [
                0.07652688771486282,
                0.03671173006296158,
                0.08458501100540161
            ],
            "min" : [
                -0.07265707105398178,
                -0.03321024030447006,
                -0.06835956126451492
            ],
            "type" : "VEC3"
        },
        {
            "bufferView" : 9,
            "componentType" : 5126,
            "count" : 18721,
            "type" : "VEC3"
        },
        {
            "bufferView" : 10,
            "componentType" : 5126,
            "count" : 18721,
            "type" : "VEC2"
        },
        {
            "bufferView" : 11,
            "componentType" : 5123,
            "count" : 110592,
            "type" : "SCALAR"
        }
    ],
    "bufferViews" : [
        {
            "buffer" : 0,
            "byteLength" : 48,
            "byteOffset" : 0
        },
        {
            "buffer" : 0,
            "byteLength" : 48,
            "byteOffset" : 48
        },
        {
            "buffer" : 0,
            "byteLength" : 32,
            "byteOffset" : 96
        },
        {
            "buffer" : 0,
            "byteLength" : 12,
            "byteOffset" : 128
        },
        {
            "buffer" : 0,
            "byteLength" : 20100,
            "byteOffset" : 140
        },
        {
            "buffer" : 0,
            "byteLength" : 20100,
            "byteOffset" : 20240
        },
        {
            "buffer" : 0,
            "byteLength" : 13400,
            "byteOffset" : 40340
        },
        {
            "buffer" : 0,
            "byteLength" : 18636,
            "byteOffset" : 53740
        },
        {
            "buffer" : 0,
            "byteLength" : 224652,
            "byteOffset" : 72376
        },
        {
            "buffer" : 0,
            "byteLength" : 224652,
            "byteOffset" : 297028
        },
        {
            "buffer" : 0,
            "byteLength" : 149768,
            "byteOffset" : 521680
        },
        {
            "buffer" : 0,
            "byteLength" : 221184,
            "byteOffset" : 671448
        }
    ],
    "buffers" : [
        {
            "byteLength" : 892632,
            "uri" : "data:application/octet-stream;base64,"
        }
    ]
}
